<svg width="389" height="133" viewBox="0 0 350 120" xmlns="http://www.w3.org/2000/svg">
	<g id="SvgjsG1509" featurekey="nameContainer" transform="matrix(1,0,0,1,0,0)" fill="#ffffff">
		<rect y="0" height="1" width="1" opacity="0"></rect>
		<rect y="115" width="350" height="5"></rect>
	</g>
	<g id="SvgjsG1510" featurekey="nameFeature-0" transform="matrix(3.01890984235338,0,0,3.01890984235338,-2.986361385689041,-18.08093841325737)" fill="#ffffff">
		<path d="M5.7219 31.604300000000002 l3.7701 0 l-1.8717 -15.348 z M0.9893 40.053476 l3.3422 -27.193 l-0.66845 -0.80214 l7.139 0 l3.4492 27.995 l-3.7166 0 l-0.50802 -4.2246 l-5.9091 -0.026738 l0.9893 0.7754 l-0.42781 3.4759 l-3.6898 0 z M14.893043315508022 12.032 l4.3583 0 l0 23.77 l6.1497 0 l0 4.2246 l-9.8396 0 l0 -0.026738 l0 -4.1979 l0 -22.968 z M26.015998930481285 12.861 l-0.66845 -0.82888 l10.508 0 l0 4.2246 l-7.246 0 l1.0963 0.82888 l0 6.8182 l4.3316 0 l0 4.2513 l-5.4278 0 l1.0963 0.80214 l0 6.8449 l6.1497 0 l0 4.2246 l-9.8396 0 l0 -4.2246 l0 -7.6471 l0 -4.2513 l0 -11.043 z M40.9892871657754 23.85 l4.3048 0 l0 -7.6738 l-5.4011 0 l1.0963 0.82888 l0 6.8449 z M48.9571871657754 14.626000000000001 l0 10.802 c0 1.4171 -1.1497 2.6471 -2.6471 2.6471 l-6.4171 0 l1.0963 0.82888 l0 11.07 l-3.6898 0 l0 -27.193 l-0.66845 -0.82888 l9.6791 0 c1.4973 0 2.6471 1.1765 2.6471 2.6738 z M53.55612459893048 11.952000000000002 l0 11.872 l4.3048 0 l0 -11.872 l3.6631 0 l0 27.995 l-3.6631 0 l0 -11.898 l-5.4011 0 l1.0963 0.82888 l0 11.07 l-3.6898 0 l0 -27.193 l-0.66845 -0.80214 l4.3583 0 z M69.17117165775402 28.102 l-5.8289 0 l0 -4.2246 l5.8289 0 l0 4.2246 z M71.47054438502674 12.861 l-0.66845 -0.82888 l10.508 0 l0 4.2246 l-7.246 0 l1.0963 0.82888 l0 6.8182 l4.3316 0 l0 4.2513 l-5.4278 0 l1.0963 0.80214 l0 6.8449 l6.1497 0 l0 4.2246 l-9.8396 0 l0 -4.2246 l0 -7.6471 l0 -4.2513 l0 -11.043 z M93.66271122994654 14.678999999999998 l0 5.7754 l-3.6631 0 l0 -4.2246 l-5.4011 0 l1.0695 0.82888 l0 3.3957 l7.9947 9.8128 l0 4.2246 l0 2.8877 c0 1.4171 -1.1497 2.6471 -2.6471 2.6471 l-6.3636 0 c-1.4973 0 -2.6471 -1.2299 -2.6471 -2.6471 l0 -5.9626 l3.6631 0 l0 4.385 l4.3316 0 l0 -4.2246 l-7.9947 -9.8128 l0 -7.0856 c0 -1.4973 1.1497 -2.6471 2.6471 -2.6471 l6.3636 0 c1.4973 0 2.6471 1.1497 2.6471 2.6471 z M98.71655240641714 39.946524 l-3.6898 0 l0 -27.166 l-0.66845 -0.82888 l4.3583 0 l0 27.995 z M100.24060534759361 12.032 l6.1765 0 l2.4866 9.4385 l2.5134 -9.4385 l5.508 0 l-0.026738 27.995 l-3.6631 0 l0 -20.535 l-4.3316 16.257 l0 0.026738 l0 -0.026738 l0 0.026738 l0 -0.026738 l-4.3048 -16.257 l0 20.535 l-3.6898 0 l0 -27.193 z"></path>
	</g>
</svg>